<?xml version="1.0" encoding="utf-8"?>
<!-- Generator: Adobe Illustrator 27.0.1, SVG Export Plug-In . SVG Version: 6.00 Build 0)  -->
<svg version="1.1" id="Layer_1" xmlns="http://www.w3.org/2000/svg" xmlns:xlink="http://www.w3.org/1999/xlink" x="0px" y="0px"
	 viewBox="0 0 527 529" style="enable-background:new 0 0 527 529;" xml:space="preserve">
<style type="text/css">
	.st0{fill:#FFFFFF;}
	.st1{stroke:#000000;stroke-width:2;}
	.st2{fill:#FFC700;}
	.st3{fill:#FFC700;stroke:#FFC700;}
	.st4{fill:none;stroke:#000000;stroke-width:10;}
	.st5{fill:none;stroke:#FFFFFF;stroke-width:10;}
	.st6{fill:#FFFFFF;stroke:#000000;stroke-width:10;}
	.st7{fill:none;stroke:#000000;}
	.st8{fill:#FFC700;stroke:#000000;stroke-width:20;}
	.st9{fill:none;stroke:#000000;stroke-width:17;}
</style>
<circle class="st0" cx="265.5" cy="263.7" r="252.3"/>
<path class="st1" d="M490.1,194.6C574.2,493,147.5,628.8,45.1,336.4C156,301.1,379.2,229.9,490.1,194.6z"/>
<path class="st2" d="M49.6,322.6c-5.7-23.6-20-96.7,18.6-167C124,54,266.5,1.2,372.4,54.9c49.6,25.1,92.2,71.9,116.3,144
	c-58.4,27.6-129.5,56.2-212.3,79.6C191.8,302.5,114.7,315.6,49.6,322.6z"/>
<path class="st3" d="M59.9,313l2.5,9.3c38.1,10.7,250.9-55,316.1-80.8l-9.5-36L59.9,313z"/>
<path class="st4" d="M477.5,174.5l6.6,20.6"/>
<path class="st5" d="M51.5,325.9c71.4-7.6,158.4-22.8,254-53.1c68.5-21.7,127.9-46.8,177.8-71.4"/>
<path class="st6" d="M468.4,201.3c33.8,78-75.1,127-110.1,49C324.6,172.4,433.4,123.3,468.4,201.3z"/>
<path class="st6" d="M451.5,209.5c22.2,51.4-49.3,83.7-72.4,32.2C356.9,190.3,428.4,158.1,451.5,209.5z"/>
<path class="st7" d="M299.8,321.3V296"/>
<path class="st8" d="M483.3,213.2"/>
<ellipse class="st9" cx="266.2" cy="261.5" rx="226.1" ry="228"/>
</svg>
